<svg width="921" height="359" viewBox="0 0 921 359" fill="none" xmlns="http://www.w3.org/2000/svg">
<g clip-path="url(#clip0_520_159)">
<path d="M715.4 0V115.094C712.689 118.179 710.254 117.997 707.723 117.006C704.773 113.969 703.717 43.6548 705.912 0H715.4Z" fill="#0E4C8D"/>
<path d="M296.98 266.029C275.388 238.632 253.797 211.27 231.21 182.566H268.395L316.028 242.273L364.705 181.514H415.29C430.116 139.661 453.83 119.691 489.469 118.614C492.012 127.287 490.404 136.117 490.584 146.145C470.54 149.774 454.922 159.064 447.701 181.308H489.097C491.076 191.675 489.744 200.372 489.792 210.339H444.486V356.181C434.881 357.498 425.151 357.616 415.517 356.532V212.178C402.682 209.19 390.783 210.883 378.56 210.847L334.861 266.162L405.993 356.411H368.952L316.04 290.016L263.093 356.399H226.543C249.778 324.671 274.261 296.548 296.98 266.029Z" fill="#EE3E3E"/>
<path d="M749.419 181.32C751.818 183.994 751.254 187.368 751.146 190.392C750.954 196.174 752.202 202.065 749.875 207.92C744.093 211.258 737.58 209.867 731.474 209.782C712.881 209.528 692.237 229.027 692.681 250.304C693.293 280.012 692.813 309.733 692.801 339.453V355.758C682.977 358.177 674.184 356.508 666.495 356.968C661.853 353.545 662.657 349.589 662.645 346.081C662.573 315.841 662.381 285.601 662.645 255.361C662.933 223.911 676.451 200.384 704.988 186.57C717.487 180.462 734.857 178.708 749.419 181.32Z" fill="#EE3E3E"/>
<path d="M604.575 116.34C600.017 118.312 597.486 118.215 594.979 117.308C591.812 115.046 592.436 111.671 592.412 108.587C592.34 94.8214 591.752 81.0076 592.52 67.2785C593.239 54.5413 584.279 45.7475 574.023 43.3646C553.283 38.5262 538.673 49.4126 538.433 70.8711C538.265 84.6485 538.349 98.4139 538.277 112.191C538.191 113.254 538.03 114.309 537.797 115.348C535.038 118.977 531.62 118.445 526.498 116.231C525.79 98.547 524.53 80.0641 527.013 61.8716C529.784 41.5502 542.355 31.8612 562.867 31.6314C567.067 31.4576 571.273 31.5384 575.462 31.8733C590.517 33.4942 603.483 45.5298 604.251 60.7346C605.331 79.0843 604.575 97.5792 604.575 116.34Z" fill="#0E4C8D"/>
<path d="M817.793 91.1563C825.553 88.7371 826.501 94.1561 828.876 98.172C834.334 107.438 840.871 110.171 849.772 107.377C855.769 105.502 859.968 101.631 860.46 95.0754C860.739 92.4038 860.158 89.7126 858.804 87.3994C857.449 85.0861 855.393 83.2735 852.939 82.2293C848.181 80.0274 843.245 78.2426 838.184 76.8949C822.339 72.5645 818.044 64.6053 818.644 50.598C819.148 38.9011 828.096 30.6758 840.308 29.1517C854.138 27.4099 864.43 34.2441 868.76 48.1546C869.079 49.5565 869.26 50.9868 869.3 52.4246C867.321 57.2025 863.878 57.3355 860.028 56.392C853.322 42.5541 845.741 38.1149 836.577 42.6509C830.112 45.8685 829.2 51.1182 833.722 62.4038C840.919 64.8956 848.824 67.6656 856.741 70.3268C868.377 74.2459 877.805 92.4506 870.008 106.047C863.41 117.55 849.184 122.521 834.166 118.07C822.459 114.598 816.605 105.285 817.793 91.1563Z" fill="#0E4C8D"/>
<path d="M510.004 3.38696L521.772 3.68937V115.24C518.017 118.735 514.994 117.985 511.996 117.187C511.588 116.739 510.952 116.364 510.928 115.977C508.361 78.4553 509.992 40.9091 510.004 3.38696Z" fill="#0E4C8D"/>
<path d="M753.353 28.7283L741.01 28.1235C746.048 19.753 752.861 14.9992 758.727 9.47131C763.165 5.28606 768.323 5.28608 772.869 9.33827C778.999 14.7815 784.865 20.5755 791.402 26.7808C784.937 29.3815 780.27 28.4138 775.628 27.9057C768.095 25.2809 760.802 29.1153 753.353 28.7283Z" fill="#0E4C8D"/>
<path d="M892.055 119.824C892.055 133.553 892.175 146.762 892.055 159.959C891.9 173.361 892.715 186.824 891.372 201.993C887.209 199.247 885.05 197.868 882.975 196.416C862.367 182.288 839.672 178.091 815.262 181.708C768.972 188.554 735.205 236.563 742.39 282.855C747.848 318.03 777.176 351.803 816.425 357.609C825.206 360.222 834.178 358.214 843.043 358.818C859.452 357.609 875.502 356.399 890.184 346.831C912.016 332.521 917.833 310.676 921.072 287.052V118.022C911.764 119.171 902.251 117.042 892.055 119.824ZM830.879 329.316C796.729 329.183 770.903 302.934 771.239 268.836C771.622 235.499 797.424 210.496 830.855 209.722C860.748 209.033 891.66 232.705 891.672 269.586C891.716 277.577 890.162 285.495 887.102 292.866C884.042 300.237 879.539 306.91 873.862 312.487C868.186 318.063 861.453 322.427 854.065 325.319C846.678 328.21 838.788 329.57 830.867 329.316H830.879Z" fill="#EE3E3E"/>
<path d="M221.277 180.026C229.458 168.378 224.096 159.354 215.495 150.766C184.392 119.691 146.522 109.058 104.131 114.986C47.2492 122.933 5.64939 170.192 0.0595703 219.544V255.699C5.93728 309.188 54.1584 352.855 101.24 357.585L140.549 357.863C181.537 351.815 211.585 329.679 230.514 293.161C250.75 254.272 245.952 216.435 221.277 180.026ZM146.774 336.55C90.1204 348.791 38.5645 314.644 27.3969 261.832C19.7439 225.653 35.1939 187.586 67.5332 164.846C103.951 139.262 145.203 140.738 179.881 168.958C183.652 171.85 187.193 175.032 190.473 178.478C197.035 185.832 204.7 188.953 214.74 185.53C248.662 245.648 212.988 322.24 146.714 336.55H146.774Z" fill="#EE3E3E"/>
<path d="M654.225 259.28C648.227 214.222 613.681 182.941 568.615 180.51C517.683 177.764 474.512 219.411 475.051 270.844C475.507 313.386 507.295 351.186 550.622 357.693H579.65C585.24 356.278 591.046 355.419 596.444 353.363C638.931 337.009 659.107 295.774 654.225 259.28ZM565.628 329.292C557.708 329.599 549.808 328.292 542.402 325.449C534.995 322.605 528.233 318.284 522.521 312.743C516.809 307.203 512.265 300.557 509.16 293.203C506.055 285.85 504.454 277.941 504.452 269.948C504.2 232.922 535.304 209.129 564.92 209.71C598.159 210.363 624.393 235.329 625.196 268.436C626 301.822 599.347 329.001 565.628 329.292V329.292Z" fill="#EE3E3E"/>
<path d="M699.291 71.1008C697.924 52.5212 687.848 39.1308 670.671 32.6957C652.954 26.0549 636.508 29.6353 623.001 43.5821C608.859 58.0975 606.676 79.8704 616.524 97.8694C624.105 111.671 644.281 124.263 665.069 118.517C672.374 116.497 678.539 111.732 687.116 109.131C684.561 125.618 676.152 134.714 662.262 138.319C648.743 141.839 637.588 137.206 629.071 126.223C625.472 121.541 622.27 116.449 614.149 120.658C621.346 143.048 637.576 152.786 662.13 150.233C681.155 148.262 697.984 130.988 699.243 110.909C700.162 97.6563 700.178 84.3557 699.291 71.1008ZM654.381 108.284C645.771 108.05 637.591 104.437 631.583 98.2124C625.574 91.9883 622.212 83.6454 622.212 74.9594C622.212 66.2734 625.574 57.9304 631.583 51.7063C637.591 45.4822 645.771 41.8687 654.381 41.6347C672.458 41.2597 687.104 56.15 687.152 74.8143C687.236 92.8737 671.798 108.623 654.381 108.284Z" fill="#0E4C8D"/>
<path d="M772.283 79.181C784.662 78.7818 797.257 81.0438 809.361 77.5359C809.852 53.4405 800.544 40.909 775.642 31.2079C768.085 24.8695 760.636 25.5469 753.294 31.607C745.282 35.6229 737.101 39.3001 731.247 46.6424C717.32 64.1213 718.448 90.6239 734.042 106.325C750.835 123.162 778.425 123.549 794.618 110.111C799.596 105.998 805.306 101.922 806.242 94.3858C799.884 91.5432 795.302 93.0189 791.284 97.3251C786.413 102.551 780.068 105.357 773.459 107.159C769.146 108.352 764.62 108.538 760.226 107.702C755.832 106.866 751.684 105.03 748.099 102.335C744.514 99.64 741.585 96.156 739.536 92.148C737.487 88.1399 736.371 83.7135 736.273 79.2052C748.244 79.2536 760.276 79.556 772.283 79.181ZM733.982 66.2624C741.299 50.5374 751.135 42.0701 766.285 41.9492C780.284 41.9492 790.036 50.4165 795.794 66.2624H733.982Z" fill="#0E4C8D"/>
</g>
<defs>
<clipPath id="clip0_520_159">
<rect width="921" height="359" fill="white"/>
</clipPath>
</defs>
</svg>
